<svg xmlns="http://www.w3.org/2000/svg" viewBox="0 0 512 512">
  <defs>
    <linearGradient id="grad1" x1="0%" y1="0%" x2="100%" y2="100%">
      <stop offset="0%" style="stop-color:#1a9e5d;stop-opacity:1" />
      <stop offset="100%" style="stop-color:#d2f54d;stop-opacity:1" />
    </linearGradient>
  </defs>
  <path fill="url(#grad1)" d="M256 0C114.6 0 0 114.6 0 256s114.6 256 256 256 256-114.6 256-256S397.4 0 256 0zm0 472c-119.3 0-216-96.7-216-216S136.7 40 256 40s216 96.7 216 216-96.7 216-216 216z"/>
  <path fill="url(#grad1)" d="M256 64c-106 0-192 86-192 192s86 192 192 192 192-86 192-192S362 64 256 64zm0 344c-83.9 0-152-68.1-152-152S172.1 104 256 104s152 68.1 152 152-68.1 152-152 152z"/>
  <path fill="#ffffff" d="M256 144c-44.2 0-80 35.8-80 80 0 16.3 4.9 31.5 13.3 44.3L160 368h64v-32h32v32h64l-29.3-99.7c8.4-12.8 13.3-28 13.3-44.3 0-44.2-35.8-80-80-80zm0 128c-26.5 0-48-21.5-48-48s21.5-48 48-48 48 21.5 48 48-21.5 48-48 48z"/>
</svg>
